<svg xmlns="http://www.w3.org/2000/svg" width="181" height="72.107" viewBox="0 0 181 72.107">
  <g id="Group_135" data-name="Group 135" transform="translate(-224 -31)">
    <g id="lg1" transform="translate(-385.092 -368.251)">
      <g id="Group_134" data-name="Group 134" transform="translate(609.092 399.251)">
        <g id="Group_132" data-name="Group 132" transform="translate(0 0)">
          <path id="Path_146" data-name="Path 146" d="M703.393,759.348c-1.991-3-6.143-5.13-10.109-3.464-2.891-.759-5.157-6.758-5.1-8.173,1.035.394,3.547-4.023.112-5,3.75-2.921,9.391-14.029,7.717-21.529,5.984,6.027.5,18.925-.494,20.43s-2.547,3.514-.656,6.538c5.064-.714,9.365,3.214,10.094,4.251.858-3.047.1-9.138-2.264-11.009,1.779-2.584,5.448-29.308,5.448-29.293s3.974,26.519,5.659,29.321c-3.238,1.64-2.947,7.944-2.288,10.963.645-1.195,5.262-5.227,10.049-4.228,1.534-2.616.574-4.744-.639-6.5-4.3-6.219-3.927-16.532-.465-20.444-1.6,11.828,6.7,20.024,7.6,21.8-2.414.324-2.217,4.047.092,4.632.267,1.523-1.961,6.818-5.2,8.245-4.962-1.6-8.938,2.2-10.021,3.565a11.424,11.424,0,0,0-9.542-.116Z" transform="translate(-688.184 -712.102)" fill="#e65100" fill-rule="evenodd"/>
        </g>
        <g id="Group_133" data-name="Group 133" transform="translate(2.123 49.231)">
          <path id="Path_147" data-name="Path 147" d="M734.441,1316.513h6.35v-.358a1.35,1.35,0,0,1,2.7,0v3.581a1.35,1.35,0,1,1-2.7,0v-.357h-6.35Zm-6.936,2.865H721.95v.357a1.35,1.35,0,1,1-2.7,0v-3.581a1.35,1.35,0,0,1,2.7,0v.358h5.556Zm6.936-11.122h12.1v-.358a1.35,1.35,0,1,1,2.7,0v3.581a1.35,1.35,0,0,1-2.7,0v-.358h-12.1Zm-6.936,2.864H716.2v.358a1.35,1.35,0,0,1-2.7,0V1307.9a1.35,1.35,0,1,1,2.7,0v.358h11.307Zm6.936-11.2h4.888v-.357a1.35,1.35,0,1,1,2.7,0v3.581a1.35,1.35,0,0,1-2.7,0v-.358h-4.888Zm-6.936,2.865h-4.094v.358a1.35,1.35,0,0,1-2.7,0v-3.581a1.35,1.35,0,1,1,2.7,0v.357h4.094Z" transform="translate(-713.499 -1298.21)" fill="#e65100" fill-rule="evenodd"/>
        </g>
      </g>
    </g>
    <text id="WEev" transform="translate(276 82)" fill="#272727" font-size="38" font-family="Lato-Medium, Lato" font-weight="500" letter-spacing="0.25em"><tspan x="0" y="0">WEev</tspan></text>
  </g>
</svg>
