<svg xmlns="http://www.w3.org/2000/svg" width="26.109" height="46" viewBox="0 0 26.109 46">
  <path id="facebook" d="M16.627,46H9.26a2.234,2.234,0,0,1-2.231-2.231V27.153h-4.3A2.234,2.234,0,0,1,.5,24.922V17.8a2.234,2.234,0,0,1,2.231-2.231h4.3V12.005a12.139,12.139,0,0,1,3.21-8.7A11.562,11.562,0,0,1,18.763,0l5.618.009A2.235,2.235,0,0,1,26.609,2.24V8.851a2.233,2.233,0,0,1-2.231,2.231H20.6c-1.154,0-1.447.231-1.51.3-.1.118-.227.45-.227,1.368V15.57h5.235a2.268,2.268,0,0,1,1.1.28A2.239,2.239,0,0,1,26.346,17.8l0,7.12a2.234,2.234,0,0,1-2.231,2.231H18.859V43.769A2.234,2.234,0,0,1,16.627,46Zm-6.9-2.7h6.436V25.946a1.492,1.492,0,0,1,1.49-1.49h5.995l0-6.189h-6a1.491,1.491,0,0,1-1.489-1.49V12.754a4.593,4.593,0,0,1,.9-3.152,4.571,4.571,0,0,1,3.531-1.214h3.317V2.705L18.761,2.7c-5.572,0-9.035,3.567-9.035,9.309v4.772a1.491,1.491,0,0,1-1.489,1.49H3.2v6.189h5.04a1.491,1.491,0,0,1,1.489,1.49Zm14.65-40.6h0Zm0,0" transform="translate(-0.5)" fill="#f7d7c1"/>
</svg>
