<svg xmlns="http://www.w3.org/2000/svg" xmlns:xlink="http://www.w3.org/1999/xlink" width="71.486" height="47.747" viewBox="0 0 71.486 47.747">
  <defs>
    <linearGradient id="linear-gradient" x1="0.5" x2="0.5" y2="1" gradientUnits="objectBoundingBox">
      <stop offset="0" stop-color="#01d3f1"/>
      <stop offset="1" stop-color="#0094bb"/>
    </linearGradient>
  </defs>
  <g id="this-free-icons-png-design-of-handshake-002" transform="translate(130.284 -85.681)">
    <path id="Union_10" data-name="Union 10" d="M-6458.87-1286.59a4.266,4.266,0,0,1-2.054-.7c-1.03-.682-2.09-1.329-3.148-2a3.045,3.045,0,0,1-3.5,1.068,3.053,3.053,0,0,1-2.09-2.755,3.505,3.505,0,0,1-3.4-.134,3.322,3.322,0,0,1-1.525-3.068,3.462,3.462,0,0,1-3.266-.377,3.465,3.465,0,0,1-1.391-2.971,7.37,7.37,0,0,1-.861.064,2.929,2.929,0,0,1-2.7-1.624,2.858,2.858,0,0,1,.161-3.14c.189-.287.422-.548.6-.835a.453.453,0,0,0,.018-.413,50.5,50.5,0,0,0-4.936-5.625c-.044-.036-.1-.064-.179-.125-.054.1-.107.179-.162.259a1.8,1.8,0,0,1-2.233.853c-1.947-.682-3.894-1.373-5.823-2.09a1.784,1.784,0,0,1-1.032-2.4c.861-2.441,1.74-4.872,2.61-7.3q2.343-6.513,4.674-13.036a1.836,1.836,0,0,1,2.592-1.211c1.813.655,3.626,1.311,5.448,1.947a1.818,1.818,0,0,1,1.319,1.445,2.7,2.7,0,0,1-.063.925,4.278,4.278,0,0,1-.243.727c.432.2.827.395,1.229.564a18.93,18.93,0,0,0,7.16,1.2c.673.008,1.4.144,1.813-.61,3.5-2.441,7.294-3.724,11.593-2.773,1.363.3,2.692.807,4.045,1.167a25.4,25.4,0,0,0,9.528,1.022c1.042-.117,2.073-.386,3.15-.592-.1-.315-.153-.494-.207-.673a1.755,1.755,0,0,1,1.058-2.2c1.975-.727,3.967-1.436,5.958-2.118a1.776,1.776,0,0,1,2.3,1.239q1.414,3.969,2.826,7.939,2.194,6.151,4.379,12.292a1.861,1.861,0,0,1-1.257,2.692c-1.758.637-3.517,1.255-5.275,1.875a1.915,1.915,0,0,1-2.728-1.176c-1.211,1.068-2.387,2.1-3.6,3.168.261.205.494.395.728.574a4.439,4.439,0,0,1,.188,6.791,4,4,0,0,1-2.862.809c-.089-.01-.171-.018-.314-.036a3.956,3.956,0,0,1-1.5,3.991,4.692,4.692,0,0,1-4.3.7,3.927,3.927,0,0,1-3.015,3.84c-1.849.574-3.427-.143-4.917-1.211a.821.821,0,0,0-.072.215,4.1,4.1,0,0,1-4.3,3.841Q-6458.654-1286.571-6458.87-1286.59Zm-3.956-7.635a3.042,3.042,0,0,1-.333,3.706c1.2.745,2.324,1.552,3.545,2.17a2.853,2.853,0,0,0,3.615-1,1.814,1.814,0,0,0-.656-2.718c-1.345-.781-2.7-1.544-4.037-2.333a.735.735,0,0,1-.367-1.05.763.763,0,0,1,1.112-.3c.089.044.179.1.279.152q3.82,2.208,7.661,4.4a3.305,3.305,0,0,0,1.041.377,2.85,2.85,0,0,0,3.086-1.4,1.773,1.773,0,0,0-.672-2.4c-1.365-.682-2.666-1.489-3.985-2.234-1.094-.62-2.18-1.238-3.274-1.857a.749.749,0,0,1-.413-.861.664.664,0,0,1,.646-.584,1.4,1.4,0,0,1,.709.225c1.965,1.1,3.93,2.224,5.894,3.328.521.287,1.076.52,1.588.807s.96.655,1.48.924a2.879,2.879,0,0,0,3.973-1.355,1.946,1.946,0,0,0-.851-2.539c-.95-.538-1.893-1.086-2.845-1.624q-2.744-1.575-5.481-3.14c-.287-.161-.556-.377-.475-.727a1.038,1.038,0,0,1,.421-.664,1.156,1.156,0,0,1,.861.1q4.118,2.328,8.219,4.691a4.87,4.87,0,0,0,2.656.7,2.091,2.091,0,0,0,2.011-1.391,3.131,3.131,0,0,0-.925-3.491c-.4-.313-.809-.61-1.211-.925-6.029-4.7-12.069-9.375-18.061-14.1a6.24,6.24,0,0,0-6.829-.915,15.594,15.594,0,0,0-3.374,2.2,8.179,8.179,0,0,1-5.266,1.544,4.654,4.654,0,0,1-.8-.081,2.991,2.991,0,0,1-2.593-4.091,2.007,2.007,0,0,1,.592-.96c1.283-1.211,2.531-2.459,3.786-3.688a4.106,4.106,0,0,0,.325-.412,19.3,19.3,0,0,1-8.757-1.847c-.064.126-.1.205-.135.287q-2.92,8.127-5.831,16.248a.423.423,0,0,0,.143.53c.879.835,1.768,1.65,2.583,2.548.988,1.084,1.929,2.287,2.943,3.489a3.05,3.05,0,0,1,3.051-.367,3.119,3.119,0,0,1,1.885,2.439,3.41,3.41,0,0,1,5.033,3.176,3.352,3.352,0,0,1,3.32.458,3.407,3.407,0,0,1,1.255,3.166,4.688,4.688,0,0,1,.812-.075A2.946,2.946,0,0,1-6462.826-1294.226Zm-3.732.62c-.44.548-.862,1.112-1.265,1.686a1.354,1.354,0,0,0-.1,1.526,1.7,1.7,0,0,0,1.58.817,2.817,2.817,0,0,0,.833-.5,14.477,14.477,0,0,0,1.355-1.785,1.39,1.39,0,0,0-.395-1.973,1.55,1.55,0,0,0-.912-.312A1.392,1.392,0,0,0-6466.558-1293.606Zm-4.29-3.517c-.6.727-1.158,1.48-1.686,2.252a4.846,4.846,0,0,0-.351.933,4.819,4.819,0,0,0,.395.96,1.539,1.539,0,0,0,2.423.054,19.973,19.973,0,0,0,1.741-2.323,2,2,0,0,0,.242-1.148,1.37,1.37,0,0,0-1.068-1.247,1.79,1.79,0,0,0-.492-.072A1.531,1.531,0,0,0-6470.847-1297.123Zm-4.765-3.176c-.51.646-1,1.3-1.471,1.974a5.616,5.616,0,0,0-.44,1.013,1.662,1.662,0,0,0,1.257,1.57,1.671,1.671,0,0,0,1.74-.682c.5-.638.979-1.283,1.455-1.937a1.665,1.665,0,0,0-.207-2.369,1.491,1.491,0,0,0-.919-.316A1.813,1.813,0,0,0-6475.612-1300.3Zm-4.449-2.746c-.431.53-.843,1.086-1.238,1.642a1.424,1.424,0,0,0,.287,2.09,1.425,1.425,0,0,0,2.09-.287c.4-.512.807-1.032,1.175-1.578a6.368,6.368,0,0,0,.367-.835,1.7,1.7,0,0,0-1.068-1.436,1.484,1.484,0,0,0-.552-.109A1.355,1.355,0,0,0-6480.061-1303.045Zm22.977-17.782q8.317,6.447,16.59,12.928c.377.287.745.574,1.14.879,1.355-1.194,2.674-2.359,4.009-3.517a.563.563,0,0,0,.181-.726q-2.651-7.4-5.276-14.823c-.179-.548-.376-1.076-.574-1.624-.162.046-.269.064-.386.1a18.579,18.579,0,0,1-7.94.618,40.158,40.158,0,0,1-8.191-1.9,11.562,11.562,0,0,0-3.571-.566,13.413,13.413,0,0,0-7.743,2.728,2.092,2.092,0,0,0-.341.351,46.942,46.942,0,0,1-5.607,5.795.889.889,0,0,0-.279.484,1.4,1.4,0,0,0,1.266,1.939,7.735,7.735,0,0,0,2.979-.143,6.854,6.854,0,0,0,2.782-1.57,13.437,13.437,0,0,1,3.768-2.118,8.292,8.292,0,0,1,2.671-.468A7.236,7.236,0,0,1-6457.084-1320.827Zm22.727-11.78c-1.9.672-3.8,1.345-5.7,2.045-.106.036-.205.315-.177.448a9.073,9.073,0,0,0,.358.96l6.809,19.218c.215.62.225.62.827.4,1.7-.6,3.408-1.211,5.113-1.813.638-.223.638-.223.413-.861q-2.287-6.42-4.567-12.84c-.853-2.4-1.7-4.781-2.557-7.177a2.533,2.533,0,0,0-.279-.43A1.729,1.729,0,0,0-6434.357-1332.607Zm-53.33.251q-3.607,10.093-7.232,20.169c-.134.385-.026.538.324.655,1.775.628,3.543,1.264,5.32,1.9.51.179.546.161.735-.368q3.593-10.025,7.187-20.043c.044-.116.08-.223.144-.439a2.315,2.315,0,0,0-.431-.261c-1.795-.655-3.608-1.283-5.394-1.947a.78.78,0,0,0-.266-.058C-6487.495-1332.747-6487.6-1332.611-6487.687-1332.356Zm56.98,21.506a2.4,2.4,0,0,1-2.349-2.433,2.4,2.4,0,0,1,2.413-2.377,2.407,2.407,0,0,1,2.377,2.415,2.411,2.411,0,0,1-2.394,2.4Zm-1.076-2.433a1.1,1.1,0,0,0,1.113,1.15,1.106,1.106,0,0,0,1.138-1.132,1.124,1.124,0,0,0-1.094-1.13h-.016A1.118,1.118,0,0,0-6431.783-1313.283Zm-61.513-.09a2.424,2.424,0,0,1,2.423-2.421,2.432,2.432,0,0,1,2.379,2.421,2.408,2.408,0,0,1-2.4,2.387A2.383,2.383,0,0,1-6493.3-1313.373Zm2.369-1.148a1.138,1.138,0,0,0-1.112,1.122,1.123,1.123,0,0,0,1.14,1.14,1.13,1.13,0,0,0,1.14-1.14,1.152,1.152,0,0,0-1.152-1.122Z" transform="translate(6366.239 1420)" fill="url(#linear-gradient)"/>
  </g>
</svg>
