<svg xmlns="http://www.w3.org/2000/svg" width="17.831" height="15.824" viewBox="0 0 17.831 15.824">
  <g id="flightcover" transform="translate(-1.147 6.017)">
    <path id="Path_145" data-name="Path 145" d="M9,15.807l1.342-1.329L16.45,8.246a4.84,4.84,0,0,0,.592-.734,4.806,4.806,0,0,0,.7-1.722,4.989,4.989,0,0,0,0-1.892A4.838,4.838,0,0,0,15.73.836,4.643,4.643,0,0,0,10.492.827a4.785,4.785,0,0,0-.722.6l-.836.851L8.1,1.428A4.82,4.82,0,0,0,7.375.822,4.669,4.669,0,0,0,2.117.813a4.8,4.8,0,0,0-.724.6,4.85,4.85,0,0,0-.6.736,4.81,4.81,0,0,0-.7,1.728,4.989,4.989,0,0,0,0,1.9,4.824,4.824,0,0,0,1.3,2.466l6.131,6.234c.1.114.184.21.276.3s.186.176.3.269.232.194.38.315S8.794,15.631,9,15.807Z" transform="translate(1.147 -6.017)" fill="#ff7517"/>
  </g>
</svg>
