<svg id="instagram" xmlns="http://www.w3.org/2000/svg" width="46" height="46" viewBox="0 0 46 46">
  <path id="Path_57" data-name="Path 57" d="M33.548,0h-21.1A12.466,12.466,0,0,0,0,12.452v21.1A12.466,12.466,0,0,0,12.452,46h21.1A12.466,12.466,0,0,0,46,33.549v-21.1A12.466,12.466,0,0,0,33.548,0ZM43.3,33.549A9.766,9.766,0,0,1,33.548,43.3h-21.1A9.766,9.766,0,0,1,2.7,33.549v-21.1A9.766,9.766,0,0,1,12.452,2.7h21.1A9.766,9.766,0,0,1,43.3,12.452Zm0,0" fill="#f7d7c1"/>
  <path id="Path_58" data-name="Path 58" d="M128.582,116a12.578,12.578,0,1,0,12.578,12.578A12.592,12.592,0,0,0,128.582,116Zm0,22.459a9.881,9.881,0,1,1,9.881-9.881A9.892,9.892,0,0,1,128.582,138.463Zm0,0" transform="translate(-105.582 -105.582)" fill="#f7d7c1"/>
  <path id="Path_59" data-name="Path 59" d="M361.693,66.285A3.717,3.717,0,1,0,365.41,70,3.721,3.721,0,0,0,361.693,66.285Zm0,4.736a1.02,1.02,0,1,1,1.02-1.02A1.021,1.021,0,0,1,361.693,71.022Zm0,0" transform="translate(-325.815 -60.33)" fill="#f7d7c1"/>
</svg>
