<svg xmlns="http://www.w3.org/2000/svg" width="39.22" height="34.092" viewBox="0 0 39.22 34.092">
  <g id="flightcover" transform="translate(-28.929 -9)">
    <path id="Path_145" data-name="Path 145" d="M48.688,43.092l2.954-2.865L65.1,26.77A10.409,10.409,0,0,0,50.378,12.049l-1.84,1.84-1.84-1.84A10.409,10.409,0,1,0,31.979,26.77L45.435,40.227A24.023,24.023,0,0,0,48.688,43.092ZM31.531,19.409a7.807,7.807,0,0,1,13.327-5.521l2.76,2.76a1.3,1.3,0,0,0,1.84,0l2.76-2.76A7.807,7.807,0,1,1,63.258,24.93L48.538,39.651,33.819,24.93A7.754,7.754,0,0,1,31.531,19.409Z" fill="#484848"/>
  </g>
</svg>
