<svg xmlns="http://www.w3.org/2000/svg" width="50.478" height="33.652" viewBox="0 0 50.478 33.652">
  <g id="mail" transform="translate(-168 -97.333)">
    <g id="Group_50" data-name="Group 50" transform="translate(168 97.333)">
      <path id="Path_56" data-name="Path 56" d="M47.889,85.333H2.589A2.6,2.6,0,0,0,0,87.922V116.4a2.6,2.6,0,0,0,2.589,2.589h45.3a2.6,2.6,0,0,0,2.589-2.589V87.922A2.6,2.6,0,0,0,47.889,85.333Zm-.971,1.941-20.19,15.144a2.706,2.706,0,0,1-2.978,0L3.56,87.274ZM36.133,103.417l11,13.59c.011.014.025.024.036.036H3.307c.012-.013.025-.023.036-.036l11-13.59a.971.971,0,0,0-1.509-1.222L1.941,115.653V88.488l20.644,15.483a4.634,4.634,0,0,0,5.307,0L48.536,88.488v27.165L37.642,102.2a.971.971,0,0,0-1.509,1.222Z" transform="translate(0 -85.333)" fill="#fff"/>
    </g>
  </g>
</svg>
