<svg xmlns="http://www.w3.org/2000/svg" width="28.035" height="34.092" viewBox="0 0 28.035 34.092">
  <g id="profile" transform="translate(-4.887 -2.625)">
    <g id="User" transform="translate(4.887 2.625)">
      <g id="Group_125" data-name="Group 125" transform="translate(0 15.579)">
        <path id="Path_141" data-name="Path 141" d="M27.708,33.221H13.69c-3.845,0-7.009-2.786-7.009-6.171V25.815c0-6.093,5.7-11.108,12.616-11.108h2.8c6.921,0,12.616,5.015,12.616,11.108v1.234C34.717,30.435,31.553,33.221,27.708,33.221ZM19.3,17.176c-5.383,0-9.812,3.9-9.812,8.64v1.234a4,4,0,0,0,4.205,3.7H27.708a4,4,0,0,0,4.205-3.7V25.815c0-4.739-4.43-8.64-9.812-8.64Z" transform="translate(-6.681 -14.707)" fill="#454545"/>
      </g>
      <g id="Group_126" data-name="Group 126" transform="translate(6.436 0)">
        <path id="Path_142" data-name="Path 142" d="M16.639,16.216a7.16,7.16,0,1,1,7.16-7.16A7.193,7.193,0,0,1,16.639,16.216Zm0-11.933a4.773,4.773,0,1,0,4.773,4.773A4.8,4.8,0,0,0,16.639,4.283Z" transform="translate(-9.479 -1.896)" fill="#454545"/>
      </g>
    </g>
  </g>
</svg>
