<svg xmlns="http://www.w3.org/2000/svg" width="34.742" height="34.926" viewBox="0 0 34.742 34.926">
  <g id="search" transform="translate(0.072 0.046)">
    <path id="Path_143" data-name="Path 143" d="M34.149,32.1l-6.981-6.751a1.944,1.944,0,0,0-2.732,0,12.918,12.918,0,0,1-8.728,3.566c-6.7,0-13.22-6.516-13.22-13.22S9,2.47,15.708,2.47c5.711,0,11.263,4.7,12.5,10.274a14.115,14.115,0,0,1-.277,6.2,1.749,1.749,0,0,0-.059.451A1.486,1.486,0,0,0,29.2,21.051a1.754,1.754,0,0,0,1.691-1.3A15.748,15.748,0,1,0,25.5,28.011l6.337,6.33a1.747,1.747,0,0,0,1.237.513c.464,0,.6.155,1.073-.3a1.383,1.383,0,0,0,.521-1.217A1.748,1.748,0,0,0,34.149,32.1Z" fill="#3e3d3d"/>
  </g>
</svg>
