<svg xmlns="http://www.w3.org/2000/svg" width="16.36" height="16.36" viewBox="0 0 16.36 16.36">
  <path id="share_1_" data-name="share (1)" d="M13.612,10.864a2.743,2.743,0,0,0-2.114.995L9.359,10.8A.639.639,0,1,0,8.79,11.94L10.932,13a2.748,2.748,0,1,0,2.68-2.141Zm0,4.218a1.47,1.47,0,0,1-1.356-2.037.646.646,0,0,0,.077-.157,1.47,1.47,0,1,1,1.278,2.194ZM6.457,9.34,5.422,8.813a2.759,2.759,0,0,0,0-1.257L11.5,4.508a2.735,2.735,0,1,0-.57-1.144L4.852,6.414a2.748,2.748,0,1,0-.007,3.54l1.032.525a.639.639,0,0,0,.58-1.139Zm7.155-8.062a1.47,1.47,0,1,1-1.47,1.47A1.472,1.472,0,0,1,13.612,1.278ZM2.748,9.65a1.47,1.47,0,1,1,1.47-1.47A1.472,1.472,0,0,1,2.748,9.65Z" fill="#ff7517"/>
</svg>
