<svg width="0" height="0" class="hidden">
  <symbol xmlns="http://www.w3.org/2000/svg" viewBox="0 0 33.074 55.971" id="call">
    <path d="M29.682 0H3.392A3.4 3.4 0 0 0 0 3.392v49.187a3.4 3.4 0 0 0 3.392 3.392h26.289a3.4 3.4 0 0 0 3.392-3.392V3.392A3.4 3.4 0 0 0 29.682 0zm.848 52.579a.859.859 0 0 1-.848.848H3.392a.859.859 0 0 1-.848-.848v-4.665h27.985zm0-7.208H2.544V10.6h27.985zm0-37.314H2.544V3.392a.859.859 0 0 1 .848-.848h26.289a.859.859 0 0 1 .848.848v4.665z" fill="#b9b9b9"></path>
  </symbol>
  <symbol xmlns="http://www.w3.org/2000/svg" viewBox="0 0 50.471 50.471" id="facebook">
    <path d="M31.341 4.82a.74.74 0 1 0-.99 1.1 17.267 17.267 0 0 1 1.777 1.86l-2.144 6.6-4.324 1.58-6.142-4.462V6.751l5.6-4.07A17.173 17.173 0 0 1 27.939 4.1a.74.74 0 0 0 .784-1.254 18.777 18.777 0 0 0-25.94 6.091.74.74 0 1 0 1.259.776q.149-.242.306-.479l1.764 5.429L1.5 18.017a17.179 17.179 0 0 1 1.192-5.6.74.74 0 1 0-1.375-.544A18.781 18.781 0 1 0 31.341 4.82zm2.023 23.255l-6.942-.018-2.639-3.457 2.353-7.242 4.324-1.58 5.586 4.057a17.185 17.185 0 0 1-2.682 8.242zM33.207 9.24a17.332 17.332 0 0 1 2.854 8.776l-4.616-3.353zM22.423 24h-7.288l-2.252-6.931 5.9-4.284 5.9 4.284zM23.4 2.105L18.779 5.46l-4.618-3.354a17.322 17.322 0 0 1 9.237 0zM5.43 7.778a17.411 17.411 0 0 1 4.782-4.034 17.1 17.1 0 0 1 2.225-1.063l5.6 4.07v4.742L11.9 15.955l-4.324-1.58zm1.668 8l4.324 1.58 2.353 7.242-2.653 3.478H4.194a17.188 17.188 0 0 1-2.683-8.242zM5.254 29.554h5.7l1.764 5.427a17.377 17.377 0 0 1-7.46-5.427zm19.322 5.525l.45-1.384a.74.74 0 1 0-1.406-.457l-.765 2.355a17.342 17.342 0 0 1-8.407-.063l-2.138-6.575 2.653-3.478h7.631l2.488 3.261-.484 1.49a.739.739 0 1 0 1.402.457l.374-1.15 5.928.016a17.371 17.371 0 0 1-7.73 5.529z" fill="#6a6a6a"></path>
    <path d="M14.27 38.251a.74.74 0 1 0-1.046 1.046l6.6 6.6a.74.74 0 0 0 1.046-1.046zm10.143.128a.74.74 0 1 0-1.046 1.045l6.408 6.408a.74.74 0 0 0 1.046-1.046zm22.558-5.77a.739.739 0 0 0 .523-1.262l-6.408-6.408a.74.74 0 1 0-1.046 1.046l6.408 6.408a.737.737 0 0 0 .523.216zm.36-9.564a.74.74 0 0 0 1.046-1.046l-8.175-8.176a.74.74 0 0 0-1.046 1.046zm-.568 17.528a.74.74 0 0 0 1.046-1.046l-3.908-3.908a.74.74 0 1 0-1.046 1.046zm-12.471.324a.74.74 0 0 0-1.046 1.046l3.908 3.908a.74.74 0 1 0 1.046-1.046zm15.963 8.313L35.002 33.957a.74.74 0 1 0-1.046 1.046l15.253 15.253a.74.74 0 1 0 1.046-1.046z" fill="#ff7517"></path>
  </symbol>
  <symbol xmlns="http://www.w3.org/2000/svg" viewBox="0 0 26.109 46" id="football">
    <path d="M16.127 46H8.76a2.234 2.234 0 0 1-2.231-2.231V27.153h-4.3A2.234 2.234 0 0 1 0 24.922V17.8a2.234 2.234 0 0 1 2.231-2.231h4.3v-3.564a12.139 12.139 0 0 1 3.21-8.7A11.562 11.562 0 0 1 18.263 0l5.618.009a2.235 2.235 0 0 1 2.228 2.231v6.611a2.233 2.233 0 0 1-2.231 2.231H20.1c-1.154 0-1.447.231-1.51.3-.1.118-.227.45-.227 1.368v2.82h5.235a2.268 2.268 0 0 1 1.1.28 2.239 2.239 0 0 1 1.148 1.95v7.12a2.234 2.234 0 0 1-2.231 2.231h-5.256v16.618A2.234 2.234 0 0 1 16.127 46zm-6.9-2.7h6.436V25.946a1.492 1.492 0 0 1 1.49-1.49h5.995v-6.189h-6a1.491 1.491 0 0 1-1.489-1.49v-4.023a4.593 4.593 0 0 1 .9-3.152 4.571 4.571 0 0 1 3.531-1.214h3.317V2.705L18.261 2.7c-5.572 0-9.035 3.567-9.035 9.309v4.772a1.491 1.491 0 0 1-1.489 1.49H2.7v6.189h5.04a1.491 1.491 0 0 1 1.489 1.49zm14.65-40.6zm0 0" fill="#f7d7c1"></path>
  </symbol>
  <symbol xmlns="http://www.w3.org/2000/svg" viewBox="0 0 46 46" id="instagram">
    <path d="M33.548 0h-21.1A12.466 12.466 0 0 0 0 12.452v21.1A12.466 12.466 0 0 0 12.452 46h21.1A12.466 12.466 0 0 0 46 33.549v-21.1A12.466 12.466 0 0 0 33.548 0zM43.3 33.549a9.766 9.766 0 0 1-9.752 9.751h-21.1A9.766 9.766 0 0 1 2.7 33.549v-21.1A9.766 9.766 0 0 1 12.452 2.7h21.1a9.766 9.766 0 0 1 9.748 9.752zm0 0" fill="#f7d7c1"></path>
    <path d="M23 10.418a12.578 12.578 0 1 0 12.578 12.578A12.592 12.592 0 0 0 23 10.418zm0 22.459a9.881 9.881 0 1 1 9.881-9.881A9.892 9.892 0 0 1 23 32.881zM35.878 5.955a3.717 3.717 0 1 0 3.717 3.715 3.721 3.721 0 0 0-3.717-3.715zm0 4.736a1.02 1.02 0 1 1 1.02-1.02 1.021 1.021 0 0 1-1.02 1.021zm0 0" fill="#f7d7c1"></path>
  </symbol>
  <symbol xmlns="http://www.w3.org/2000/svg" viewBox="0 0 163.139 94.879" id="logo-playall">
    <g fill-rule="evenodd">
      <path d="M111.67 39.587c-.183-.945 3.111-.956 3.156-1.224 1.05-6.3 5.69-21.227 8.466-26.23.924-1.946 1.719-2.837 2.762-2.72 1.107.125 2.865 2.045 3.211 2.5.244.318 1.255 1.17 1.2 5.975-.256 1.792 1.216 13.645 1.341 13.854a4.286 4.286 0 0 1 3.15 1.926c.846 1.06-.059 1.276-.567 1.366-.43.076-2.038.333-2.038.333s1.236 5.745 1.975 7.986c.559 1.7-.83 1.716-2.163 1.311-2.245-.681-3.691-5.256-4.179-7.691-1.948 1-9.194 4.062-9.194 4.062s-1.2 8.56-1.422 9.035-.354.8-.906.731a3.224 3.224 0 0 1-1.652-1.169c-1.186-1.236-.79-7.181-.5-8.207-.508.015-2.408-.6-2.647-1.835zm13.93-21.225s.632 11.7 1.621 14.551c-2.778 1.258-7.294 3.389-7.294 3.389s4.143-15.523 5.673-17.94zM3.379 54.481c1.957-1.248 5.481-4.227 6.671-4.722.523-.218 3.4-1.823 6.322-1.33s4.991 4.532 5.475 5.99c.81 2.962-.28 8.444-1.995 11.168-2.445 4.577-8.358 10.8-13.56 10.909-.295 1.717-.888 6.794-1.092 9.081-.1 1.181.083 3.661-.6 3.821s-2.782-.57-3.272-3.261c-.884-3.231-.064-9.652.565-14.263a104.636 104.636 0 0 1 2.4-12.964c-.553.176-3.963-.292-4.291-2.048-.15-.814 1.99-1.5 3.371-2.38zm5.327 2.483l4.5-3.486c.551-.429 2.081-1.526 3.4-.857 1.27.646 1.335 3.26 1.038 5.229-.995 5.619-6.153 11.344-10.552 13.914.344-2.219 1.369-7.139 1.652-9.161a18.437 18.437 0 0 0-.038-5.639z" fill="#fff"></path>
      <path d="M97.803 59.458s-8.327-.292-8.782-.371a5.953 5.953 0 0 1-1.889-.434c-.333-.267-.385-.561-.158-.653s9.584-.525 9.925-.555a25.563 25.563 0 0 1 2.667 0 1.205 1.205 0 0 1 1.19 1.208c.06 1 .158 5.511-.55 7.3-.635 1.609-1.922 4.33-5.486 4.7-2.509.261-6.128-1.372-6.954-4.425a7.613 7.613 0 0 1-.333-3.751 21.353 21.353 0 0 0 1.845 3.689c.849 1.141 2.712 3.022 5.053 2.85s4.055-3.152 4.172-4.05.219-2.856.219-2.856-5.583.477-8.089-.045-1.687-.266-1.713-.445a20.714 20.714 0 0 1 4.413-.471c1.519-.047 5.314-.2 5.314-.2s-.022-.737-.018-.918-.138-.508-.826-.573zm1.531-3.036s2.932-16.921 3.435-19.019c.616-2.568 2.258-7.229 4.493-7.153s2.474 7.386 1.709 8.629c-.4-2.268-1.118-5.463-1.909-5.48s-1.845 4.079-2.531 6.143-5.197 16.88-5.197 16.88zm-10.249-.171s-8.808-15.183-9.7-17.145c-.91-1.991-2.863-7.058-1.045-8.362 1.906-1.368 6.283 4.211 6.693 5.734-1.737-1.51-4.237-3.649-4.862-3.165s1.142 4.329 1.911 6.363 7.003 16.575 7.003 16.575zm6.794-.4s-.735-17.164-.64-19.319c.1-2.187.728-7.538 2.93-7.931s3.961 6.707 3.473 8.082c-.86-2.135-2.234-5.109-3.011-4.961s-.952 4.375-1.193 6.536-1.559 17.592-1.559 17.592zm-2.847-.209s-5.435-16.7-5.907-18.807c-.479-2.136-1.363-7.416.66-8.37s5.575 5.441 5.463 6.9c-1.388-1.836-3.49-4.349-4.2-4s.223 4.472.554 6.621 3.429 17.655 3.429 17.655z" fill="#e65100"></path>
      <path d="M140.545 29.856c2.556-2.731 6.154-11.581 6.575-15.736.443-4.378-.094-6.6-1.268-8.025s-2.937-2.04-3.7-1.812-1.826 2.312-2.129 3.513c-2.919 7.255-4.744 18.857-4.3 24.457 0 3.144.964 8.646 4.52 9.484 3.135.627 6.387-.651 9.517-6.248a4.355 4.355 0 0 0 4.852 2.042 9.517 9.517 0 0 0 6.123-4.286c1-1.5 2.412-4.223 2.4-6.036-.008-1.3-.682-3.563-1.9-3.465s-1.348 3.032-1.579 4.02c-.48 2.047-2.621 7.512-4.588 7.443-1.2-.042-1.5-1.645-1.853-2.427-.635-1.423-.474-6.037-.411-7.035a40.606 40.606 0 0 0 5.635-11.657c.841-2.859 1.674-8.547.5-10.868s-3.42-3.281-4.214-3.217c-2.564.208-5.384 13.372-6.112 17.344a71.555 71.555 0 0 0-.594 11.66 43.987 43.987 0 0 1-1.177 4.9c-.539 1.7-2.512 5.682-4.1 5.509-2.178-.194-2.307-6.243-2.2-9.563zm3.179-18.531c.051-.217.375-1.35.548-1.346s.527 1.9.07 4.483c-1.036 5.853-2.679 9.339-3.3 10.322.022-1.274 2.133-11.124 2.679-13.459zm12.254-4.122c.05-.217.375-1.35.548-1.346s.527 1.9.07 4.483c-1.036 5.853-2.679 9.339-3.3 10.322.022-1.274 2.133-11.128 2.68-13.459zm-50.269 55.641l-.254-.754 51.467-16.953.257.745-51.47 16.961zM74.85 73.407l-.276-.771 10.932-3.315.226.729zM31.966 43.594c-1.14-.676-2.6-.92-3.339.364-1.382 2.414-3.476 9.686-4.312 13.612a67.1 67.1 0 0 0-.915 16.08c.261 1.837 1.091 6.328 4.783 6.865s7.616-3.128 8.949-6.035a4.919 4.919 0 0 0 5.178 1.878c2.375-.479 4.673-3.409 5.549-5.359.544 1.331 3.487 3.358 6.864 1.294a11.188 11.188 0 0 0 3.555-3.823c1.477 2.057 5.279 1.554 7.892-1.886a14.253 14.253 0 0 0 0 2s-7.484 6.159-7.744 13.25a7.881 7.881 0 0 0 3.356 7.055c1.014.623 3.567 2.519 6.378-3.231 2.532-5.626 2.948-17.951 2.948-17.951s4.775-4.259 5.947-6.628 1.891-4.562 1.813-5.782-.642-2.249-1.165-2.233-1.083.88-1.5 2.548a33.578 33.578 0 0 1-4.824 8.4c.1-2.748 1.136-10.743 1.324-11.664s1.225-5.525.157-8.142c-1.009-1.6-1.813-2.1-2.624-1.981-1.346.392-1.583 4.418-1.974 6.66s-1.824 10.824-3.163 14.428c-.611 1.644-1.592 3.455-2.469 3.357s-1.158-1.652-1.2-2.537a39.36 39.36 0 0 1 1.171-9.508c.435-1.39.933-4.923.365-6.231-.736-1.507-2.118-2.906-2.964-2.656-1.178.2-1.779 4.375-2.218 6.154-.453 2.07-1.584 10.077-1.19 12.081.043 1.5-2.1 6.784-3.683 6.6-1.067-.283-1.432-2.68-1.219-4.031.034-3.017 1.886-9.494 1.977-11.345.181-1.715-.112-4.555-1.685-5.772-.785-.737-1.656-.788-2.194-.1a15.72 15.72 0 0 0-.756 2.8 4.155 4.155 0 0 0-3.078-1.393c-1.838.085-4.53 2.346-5.22 3.421s-4.634 6.318-5.121 13.352c-.157 2.54-2.705 10.71-5.444 10.65-2.4-.07-2.334-8.244-2.16-9.421 4.482-6.234 6.973-14.035 6.757-18.952-.181-1.894.159-3.875-2.802-6.188zm33.882 29.02s-.319 3.4-.81 6.782-1.154 6.754-1.841 6.7c-1.551-.332-1.234-8.606 2.651-13.482zM46.675 54.106c1.509.25.757 7.2.084 10.146-.574 2.513-2.136 9.589-4.273 9.432-1.624-.12-2.043-6.527-.618-10.77 1.69-5.024 3.622-9.004 4.807-8.812zm-15.474-4c.051-.217.375-1.35.548-1.345s.527 1.9.07 4.483c-1.035 5.853-2.68 9.339-3.3 10.322.021-1.271 2.136-11.12 2.682-13.456z" fill="#fff"></path>
      <path d="M10.423 94.125l40.041-13.012.281.755-40.093 13.011-.229-.754z" fill="#fff"></path>
    </g>
  </symbol>
  <symbol xmlns="http://www.w3.org/2000/svg" viewBox="0 0 50.478 33.652" id="mail">
    <path d="M47.889 0h-45.3A2.6 2.6 0 0 0 0 2.589v28.478a2.6 2.6 0 0 0 2.589 2.589h45.3a2.6 2.6 0 0 0 2.589-2.589V2.589A2.6 2.6 0 0 0 47.889 0zm-.971 1.941l-20.19 15.144a2.706 2.706 0 0 1-2.978 0L3.56 1.941zM36.133 18.084l11 13.59c.011.014.025.024.036.036H3.307c.012-.013.025-.023.036-.036l11-13.59a.971.971 0 0 0-1.509-1.222L1.941 30.32V3.155l20.644 15.483a4.634 4.634 0 0 0 5.307 0L48.536 3.155V30.32L37.642 16.867a.971.971 0 0 0-1.509 1.222z" fill="#b9b9b9"></path>
  </symbol>
  <symbol xmlns="http://www.w3.org/2000/svg" viewBox="0 0 55.921 53.184" id="park">
    <path d="M51.3 51.379H46v-2.706h.9a.9.9 0 0 0 .9-.9v-3.608a.9.9 0 0 0-.9-.9h-3.606v-1.8h.9a.9.9 0 0 0 .9-.9v-4.51a.9.9 0 0 0-.9-.9h-.9v-.9a.9.9 0 1 0-1.8 0v.9H32.47v-.9a.9.9 0 1 0-1.8 0v.9h-.9a.9.9 0 0 0-.9.9v4.51a.9.9 0 0 0 .9.9h.9v1.8h-3.611a.9.9 0 0 0-.9.9v3.608a.9.9 0 0 0 .9.9h.9v2.706H15.333v-17.17a12.627 12.627 0 1 0-1.8 0v9.323l-2.114-1.174a5.429 5.429 0 1 0-.878 1.575l2.992 1.663v5.783H.9a.9.9 0 1 0 0 1.8h50.4a.9.9 0 1 0 0-1.8zM9.807 41.463l-3.053-1.7a.902.902 0 1 0-.877 1.576l3.052 1.7a3.6 3.6 0 1 1 .878-1.576zm1.282-20.112l2.442 2.441V32.4a10.823 10.823 0 1 1 1.8 0v-4.1l3.795-3.794a.902.902 0 1 0-1.276-1.276l-2.519 2.52v-2.333a.9.9 0 0 0-.264-.638l-2.706-2.706a.902.902 0 1 0-1.276 1.276zm19.579 15.6h12.626v2.706H30.667zm10.823 4.51v1.8H32.47v-1.8zm-13.529 3.608H46v1.8H27.961zm16.238 6.31H29.765v-2.706H44.2z" fill="#6a6a6a"></path>
    <path d="M55.015 51.38h-.9a.9.9 0 0 0 0 1.8h.9a.9.9 0 0 0 0-1.8zM49.905 9.9a6.314 6.314 0 0 0-11.972 1.9 3.608 3.608 0 0 0 .851 7.114h10.823a4.51 4.51 0 0 0 .3-9.009zm-.3 7.206H38.784a1.804 1.804 0 0 1 0-3.608.9.9 0 0 0 .9-.9 4.51 4.51 0 0 1 8.766-1.492.9.9 0 0 0 .927.6c.085-.007.159-.01.229-.01a2.706 2.706 0 1 1 0 5.412z" fill="#ff7517"></path>
    <path d="M27.875 7.175a.9.9 0 0 0 1.06-.709 3.161 3.161 0 0 1 1.342-2.022 2.525 2.525 0 0 1 2.236.3.9.9 0 0 0 1.267-.5c.189-.531.951-2.111 1.942-2.4.167-.049.674-.2 1.534.47A.902.902 0 0 0 38.362.888 3.419 3.419 0 0 0 35.21.114a5.021 5.021 0 0 0-2.742 2.644 3.771 3.771 0 0 0-2.971.054 5 5 0 0 0-2.33 3.3.9.9 0 0 0 .709 1.061z" fill="#6a6a6a"></path>
  </symbol>
  <symbol xmlns="http://www.w3.org/2000/svg" viewBox="0 0 46 37.978" id="support">
    <path d="M17.5 37.977c-7.674 0-13.742-1.341-16.645-3.677L.8 34.252.747 34.2a2.361 2.361 0 0 1-.619-2.483l.027-.074a2.4 2.4 0 0 1 2.194-1.509 19.822 19.822 0 0 0 5.241-.723 9.948 9.948 0 0 1-5.243-6.058 2.148 2.148 0 0 1 .749-2.5 2.192 2.192 0 0 1 .654-.334 14.508 14.508 0 0 1-2.974-5.334l-.018-.06-.012-.061a2.236 2.236 0 0 1 1.036-2.4 2.227 2.227 0 0 1 1.06-.3 11.217 11.217 0 0 1-.847-2.584 10.816 10.816 0 0 1 1.151-7.207L3.431 2a1.591 1.591 0 0 1 2.548-.414l.52.52c4.106 4.3 7.784 6.347 14.143 7.745a11.267 11.267 0 0 1 3.042-6.5A10.672 10.672 0 0 1 31.3 0h.019c2.106 0 4.719 1.2 6.3 2.05C38.974 1.608 40.607.921 42.3.195a2.139 2.139 0 0 1 2.4.421 2.1 2.1 0 0 1 .456 2.31q-.185.514-.418 1.009a2.142 2.142 0 0 1 .624.43 2.314 2.314 0 0 1 .576 2.162l-.021.073a8.825 8.825 0 0 1-3.546 4.866C42.09 26.137 31.043 37.977 17.5 37.977zM3.442 32.8c2.735 1.543 7.949 2.48 14.058 2.48a21.063 21.063 0 0 0 15.615-7.1 25.453 25.453 0 0 0 6.559-17.28v-.073a1.589 1.589 0 0 1 .848-1.406A5.728 5.728 0 0 0 43 6.682a1.591 1.591 0 0 1-1.533-2.505 8.756 8.756 0 0 0 .6-.951c-1.463.615-2.853 1.166-4.059 1.532a1.725 1.725 0 0 1-1.327-.143A13.143 13.143 0 0 0 31.329 2.7a8.388 8.388 0 0 0-8.068 8.5 1.591 1.591 0 0 1-1.9 1.561C14.029 11.316 9.684 9.15 5.161 4.61a7.964 7.964 0 0 0-.525 4.657A9.843 9.843 0 0 0 6.978 13.8a1.591 1.591 0 0 1-1.605 2.586 7.286 7.286 0 0 1-1.483-.57 13.439 13.439 0 0 0 4.61 5.34 1.591 1.591 0 0 1-1.017 2.9 7.152 7.152 0 0 1-2.115-.456 7.254 7.254 0 0 0 5.789 4.1 1.591 1.591 0 0 1 .473 2.974A19.115 19.115 0 0 1 3.442 32.8zm0 0" fill="#f7d7c1"></path>
  </symbol>
  <symbol xmlns="http://www.w3.org/2000/svg" viewBox="0 0 57.016 57.215" id="twitter">
    <path d="M28.408 7.27a1.125 1.125 0 0 0 1.125-1.125v-5.02a1.125 1.125 0 1 0-2.251 0v5.02a1.126 1.126 0 0 0 1.126 1.125z" fill="#ff7517"></path>
    <path d="M55.918 38.663L53.93 36.68a3.769 3.769 0 0 0-4.459-.636l-3.746-3.742.182-.182a3.906 3.906 0 0 0 0-5.515 3.863 3.863 0 0 0-1.959-1.059 3.931 3.931 0 0 0 .158-1.096 3.9 3.9 0 0 0-3.1-3.817 3.93 3.93 0 0 0 .155-1.095 3.893 3.893 0 0 0-3.1-3.815 3.895 3.895 0 0 0-4.163-4.971l-7.427-1.405c-1.132-.215-2.546-.357-3.439.457a2.035 2.035 0 0 0-.17.176 3.914 3.914 0 0 0-4.106.9 3.872 3.872 0 0 0-1.14 2.759 3.935 3.935 0 0 0 .155 1.1 3.9 3.9 0 0 0-3.1 3.813 3.924 3.924 0 0 0 .155 1.1 3.9 3.9 0 0 0-2.42 6.019 3.9 3.9 0 0 0-1.5 6.452l.182.181-3.747 3.74a3.763 3.763 0 0 0-4.257.738l-1.989 1.984a3.76 3.76 0 0 0 0 5.309l2.483 2.48a1.125 1.125 0 1 0 1.591-1.592l-2.483-2.48a1.509 1.509 0 0 1 0-2.123l1.989-1.984a1.507 1.507 0 0 1 1.836-.225 1.135 1.135 0 0 0 .142.173 1.12 1.12 0 0 0 .323.225l11.41 11.391a1.108 1.108 0 0 0 .543.548 1.506 1.506 0 0 1-.062 2.055l-1.988 1.984a1.512 1.512 0 0 1-2.128 0l-2.483-2.483a1.126 1.126 0 0 0-1.592 1.592l2.485 2.485a3.768 3.768 0 0 0 5.307 0l1.989-1.986a3.763 3.763 0 0 0 .527-4.648l4.217-4.212.014-.014c.483-.5 1.828-.406 3.128-.315a16.187 16.187 0 0 0 2.96.02l4.618 4.612a3.761 3.761 0 0 0 .638 4.455l1.989 1.986a3.763 3.763 0 0 0 5.308 0l12.062-12.048a3.759 3.759 0 0 0 0-5.31zm-29.866-27.1l4.882.924-2.922 2.921a7.094 7.094 0 0 1-1.752-1.281 5.178 5.178 0 0 1-1.654-2.554.983.983 0 0 1 0-.111 3.814 3.814 0 0 1 1.453.1zm-5.706.918a1.66 1.66 0 0 1 2.1-.2 8.05 8.05 0 0 0 2.26 3.476 8.334 8.334 0 0 0 3.242 2.009 1.652 1.652 0 0 1-2.525 2.109l-5.077-5.066a1.657 1.657 0 0 1 0-2.333zm-2.94 4.906a1.66 1.66 0 0 1 2.339 0l4.087 4.079a1.654 1.654 0 0 1-2.341 2.337l-3.1-3.1-.015-.014-.97-.97a1.651 1.651 0 0 1 0-2.334zm-2.946 4.91a1.665 1.665 0 0 1 2.331-.008l3.11 3.109a1.652 1.652 0 0 1-2.341 2.332l-1.127-1.126-1.972-1.97a1.656 1.656 0 0 1 0-2.336zm-1.96 5.9a1.664 1.664 0 0 1 2.342 0l1.129 1.128a1.652 1.652 0 0 1-2.342 2.331l-.141-.141-.005-.006-.006-.006-.975-.971a1.653 1.653 0 0 1 0-2.334zm22.933 12.79a1.125 1.125 0 0 0-1.592 0l-1 1c-.951.951-2.675.832-4.343.716-1.81-.126-3.683-.256-4.894.988l-4.145 4.14L9.092 37.479l3.668-3.662a3.9 3.9 0 0 0 5.941-3.328v-.029h.029a3.893 3.893 0 0 0 3.9-3.9v-.029h.03a3.889 3.889 0 0 0 3.9-3.927h.03a3.9 3.9 0 0 0 3.331-5.934l3.215-3.214a1.651 1.651 0 0 1 .845-.45c.034 0 .067-.009.1-.015a1.649 1.649 0 0 1 1.4 2.8l-.979.975-.01.009-1.128 1.126a1.126 1.126 0 1 0 1.591 1.593l.983-.982.149-.148a1.658 1.658 0 0 1 2.336.006 1.651 1.651 0 0 1 0 2.333l-.985.987-1.132 1.126a1.125 1.125 0 0 0 1.588 1.595l1.133-1.128a1.652 1.652 0 0 1 2.338 2.334l-1.959 1.964a1.125 1.125 0 1 0 1.592 1.591l.962-.963.017-.015a1.652 1.652 0 0 1 2.338 2.334l-.978.977-1.553 1.551a1.126 1.126 0 0 0 1.591 1.593l.76-.759 3.64 3.636-10.369 10.356-3.714-3.709a4.425 4.425 0 0 0 .739-.595l1-1a1.125 1.125 0 0 0 0-1.591zm18.894 1.394L42.265 54.427a1.512 1.512 0 0 1-2.127 0l-1.989-1.986a1.5 1.5 0 0 1 0-2.121l12.062-12.048a1.512 1.512 0 0 1 2.128 0l1.988 1.983a1.509 1.509 0 0 1 0 2.124z" fill="#6a6a6a"></path>
    <path d="M13.464 6.322a1.125 1.125 0 0 0 1.59-1.593l-4.1-4.093a1.125 1.125 0 0 0-1.59 1.593zm29.093.329a1.122 1.122 0 0 0 .8-.329l4.1-4.093A1.125 1.125 0 1 0 45.866.637l-4.1 4.093a1.125 1.125 0 0 0 .8 1.922zM6.92 48.41a1.125 1.125 0 0 0 .014 1.591 1.125 1.125 0 1 0-.017-1.595zm31.266-9.045a1.126 1.126 0 1 0-.506-2.131h-.006a1.125 1.125 0 0 0 .512 2.128z" fill="#ff7517"></path>
  </symbol>
  <symbol xmlns="http://www.w3.org/2000/svg" viewBox="0 0 46 34.841" id="youtube">
    <path d="M30.081 15.362l-10.163-5.56a1.867 1.867 0 0 0-2.763 1.638v11.026a1.863 1.863 0 0 0 2.751 1.644l10.163-5.465a1.867 1.867 0 0 0 .012-3.282zm-10.23 5.716v-8.24l7.6 4.156zm0 0" fill="#f7d7c1"></path>
    <path d="M45.662 8.223v-.021c-.039-.37-.427-3.664-2.028-5.339a7.485 7.485 0 0 0-4.96-2.324l-.228-.027L38.365.5C32.284.061 23.1 0 23.008 0h-.016C22.9 0 13.716.061 7.58.5L7.5.512l-.217.026a7.3 7.3 0 0 0-4.929 2.4C.83 4.591.389 7.814.344 8.176l-.005.047C.325 8.377 0 12.045 0 15.727v3.442c0 3.682.325 7.35.338 7.5v.023c.039.364.426 3.6 2.02 5.273a7.638 7.638 0 0 0 5.124 2.292c.187.021.348.04.458.059l.106.015c3.511.334 14.52.5 14.987.505h.028c.092 0 9.276-.061 15.357-.5l.08-.008c.077-.01.163-.019.258-.029a7.128 7.128 0 0 0 4.886-2.338c1.525-1.658 1.966-4.88 2.011-5.242l.005-.047c.014-.154.339-3.822.339-7.5v-3.445c.003-3.682-.322-7.349-.335-7.504zM43.3 19.169c0 3.408-.3 6.918-.326 7.24a8.558 8.558 0 0 1-1.322 3.734 4.433 4.433 0 0 1-3.181 1.476c-.1.011-.2.021-.287.032-5.882.425-14.719.491-15.126.493-.457-.007-11.3-.173-14.709-.489-.174-.028-.363-.05-.562-.073a5.04 5.04 0 0 1-3.447-1.44l-.025-.027a7.765 7.765 0 0 1-1.3-3.7C3 26.176 2.7 22.625 2.7 19.169v-3.442c0-3.4.3-6.91.326-7.239a8.384 8.384 0 0 1 1.318-3.735 4.651 4.651 0 0 1 3.248-1.538l.22-.026C13.78 2.762 22.681 2.7 23 2.7s9.217.066 15.132.493l.237.028a4.827 4.827 0 0 1 3.3 1.5l.011.012a7.89 7.89 0 0 1 1.3 3.751c.02.23.327 3.789.327 7.252zm0 0" fill="#f7d7c1"></path>
  </symbol>
   <symbol viewBox="0 0 27 19" id="hamburger">
            <g transform="translate(-16 -33)" fill="#2c1833">
              <rect width="27" height="3" rx="1.5" transform="translate(16 33)"></rect>
              <rect width="20" height="3" rx="1.5" transform="translate(16 41)"></rect>
              <rect width="22" height="3" rx="1.5" transform="translate(16 49)"></rect>
            </g>
          </symbol>
             <symbol  viewBox="0 0 163.139 94.879" id="logo-playall">
        <g fill-rule="evenodd">
          <path d="M111.67 39.587c-.183-.945 3.111-.956 3.156-1.224 1.05-6.3 5.69-21.227 8.466-26.23.924-1.946 1.719-2.837 2.762-2.72 1.107.125 2.865 2.045 3.211 2.5.244.318 1.255 1.17 1.2 5.975-.256 1.792 1.216 13.645 1.341 13.854a4.286 4.286 0 0 1 3.15 1.926c.846 1.06-.059 1.276-.567 1.366-.43.076-2.038.333-2.038.333s1.236 5.745 1.975 7.986c.559 1.7-.83 1.716-2.163 1.311-2.245-.681-3.691-5.256-4.179-7.691-1.948 1-9.194 4.062-9.194 4.062s-1.2 8.56-1.422 9.035-.354.8-.906.731a3.224 3.224 0 0 1-1.652-1.169c-1.186-1.236-.79-7.181-.5-8.207-.508.015-2.408-.6-2.647-1.835zm13.93-21.225s.632 11.7 1.621 14.551c-2.778 1.258-7.294 3.389-7.294 3.389s4.143-15.523 5.673-17.94zM3.379 54.481c1.957-1.248 5.481-4.227 6.671-4.722.523-.218 3.4-1.823 6.322-1.33s4.991 4.532 5.475 5.99c.81 2.962-.28 8.444-1.995 11.168-2.445 4.577-8.358 10.8-13.56 10.909-.295 1.717-.888 6.794-1.092 9.081-.1 1.181.083 3.661-.6 3.821s-2.782-.57-3.272-3.261c-.884-3.231-.064-9.652.565-14.263a104.636 104.636 0 0 1 2.4-12.964c-.553.176-3.963-.292-4.291-2.048-.15-.814 1.99-1.5 3.371-2.38zm5.327 2.483l4.5-3.486c.551-.429 2.081-1.526 3.4-.857 1.27.646 1.335 3.26 1.038 5.229-.995 5.619-6.153 11.344-10.552 13.914.344-2.219 1.369-7.139 1.652-9.161a18.437 18.437 0 0 0-.038-5.639z" fill="#fff"></path>
          <path d="M97.803 59.458s-8.327-.292-8.782-.371a5.953 5.953 0 0 1-1.889-.434c-.333-.267-.385-.561-.158-.653s9.584-.525 9.925-.555a25.563 25.563 0 0 1 2.667 0 1.205 1.205 0 0 1 1.19 1.208c.06 1 .158 5.511-.55 7.3-.635 1.609-1.922 4.33-5.486 4.7-2.509.261-6.128-1.372-6.954-4.425a7.613 7.613 0 0 1-.333-3.751 21.353 21.353 0 0 0 1.845 3.689c.849 1.141 2.712 3.022 5.053 2.85s4.055-3.152 4.172-4.05.219-2.856.219-2.856-5.583.477-8.089-.045-1.687-.266-1.713-.445a20.714 20.714 0 0 1 4.413-.471c1.519-.047 5.314-.2 5.314-.2s-.022-.737-.018-.918-.138-.508-.826-.573zm1.531-3.036s2.932-16.921 3.435-19.019c.616-2.568 2.258-7.229 4.493-7.153s2.474 7.386 1.709 8.629c-.4-2.268-1.118-5.463-1.909-5.48s-1.845 4.079-2.531 6.143-5.197 16.88-5.197 16.88zm-10.249-.171s-8.808-15.183-9.7-17.145c-.91-1.991-2.863-7.058-1.045-8.362 1.906-1.368 6.283 4.211 6.693 5.734-1.737-1.51-4.237-3.649-4.862-3.165s1.142 4.329 1.911 6.363 7.003 16.575 7.003 16.575zm6.794-.4s-.735-17.164-.64-19.319c.1-2.187.728-7.538 2.93-7.931s3.961 6.707 3.473 8.082c-.86-2.135-2.234-5.109-3.011-4.961s-.952 4.375-1.193 6.536-1.559 17.592-1.559 17.592zm-2.847-.209s-5.435-16.7-5.907-18.807c-.479-2.136-1.363-7.416.66-8.37s5.575 5.441 5.463 6.9c-1.388-1.836-3.49-4.349-4.2-4s.223 4.472.554 6.621 3.429 17.655 3.429 17.655z" fill="#e65100"></path>
          <path d="M140.545 29.856c2.556-2.731 6.154-11.581 6.575-15.736.443-4.378-.094-6.6-1.268-8.025s-2.937-2.04-3.7-1.812-1.826 2.312-2.129 3.513c-2.919 7.255-4.744 18.857-4.3 24.457 0 3.144.964 8.646 4.52 9.484 3.135.627 6.387-.651 9.517-6.248a4.355 4.355 0 0 0 4.852 2.042 9.517 9.517 0 0 0 6.123-4.286c1-1.5 2.412-4.223 2.4-6.036-.008-1.3-.682-3.563-1.9-3.465s-1.348 3.032-1.579 4.02c-.48 2.047-2.621 7.512-4.588 7.443-1.2-.042-1.5-1.645-1.853-2.427-.635-1.423-.474-6.037-.411-7.035a40.606 40.606 0 0 0 5.635-11.657c.841-2.859 1.674-8.547.5-10.868s-3.42-3.281-4.214-3.217c-2.564.208-5.384 13.372-6.112 17.344a71.555 71.555 0 0 0-.594 11.66 43.987 43.987 0 0 1-1.177 4.9c-.539 1.7-2.512 5.682-4.1 5.509-2.178-.194-2.307-6.243-2.2-9.563zm3.179-18.531c.051-.217.375-1.35.548-1.346s.527 1.9.07 4.483c-1.036 5.853-2.679 9.339-3.3 10.322.022-1.274 2.133-11.124 2.679-13.459zm12.254-4.122c.05-.217.375-1.35.548-1.346s.527 1.9.07 4.483c-1.036 5.853-2.679 9.339-3.3 10.322.022-1.274 2.133-11.128 2.68-13.459zm-50.269 55.641l-.254-.754 51.467-16.953.257.745-51.47 16.961zM74.85 73.407l-.276-.771 10.932-3.315.226.729zM31.966 43.594c-1.14-.676-2.6-.92-3.339.364-1.382 2.414-3.476 9.686-4.312 13.612a67.1 67.1 0 0 0-.915 16.08c.261 1.837 1.091 6.328 4.783 6.865s7.616-3.128 8.949-6.035a4.919 4.919 0 0 0 5.178 1.878c2.375-.479 4.673-3.409 5.549-5.359.544 1.331 3.487 3.358 6.864 1.294a11.188 11.188 0 0 0 3.555-3.823c1.477 2.057 5.279 1.554 7.892-1.886a14.253 14.253 0 0 0 0 2s-7.484 6.159-7.744 13.25a7.881 7.881 0 0 0 3.356 7.055c1.014.623 3.567 2.519 6.378-3.231 2.532-5.626 2.948-17.951 2.948-17.951s4.775-4.259 5.947-6.628 1.891-4.562 1.813-5.782-.642-2.249-1.165-2.233-1.083.88-1.5 2.548a33.578 33.578 0 0 1-4.824 8.4c.1-2.748 1.136-10.743 1.324-11.664s1.225-5.525.157-8.142c-1.009-1.6-1.813-2.1-2.624-1.981-1.346.392-1.583 4.418-1.974 6.66s-1.824 10.824-3.163 14.428c-.611 1.644-1.592 3.455-2.469 3.357s-1.158-1.652-1.2-2.537a39.36 39.36 0 0 1 1.171-9.508c.435-1.39.933-4.923.365-6.231-.736-1.507-2.118-2.906-2.964-2.656-1.178.2-1.779 4.375-2.218 6.154-.453 2.07-1.584 10.077-1.19 12.081.043 1.5-2.1 6.784-3.683 6.6-1.067-.283-1.432-2.68-1.219-4.031.034-3.017 1.886-9.494 1.977-11.345.181-1.715-.112-4.555-1.685-5.772-.785-.737-1.656-.788-2.194-.1a15.72 15.72 0 0 0-.756 2.8 4.155 4.155 0 0 0-3.078-1.393c-1.838.085-4.53 2.346-5.22 3.421s-4.634 6.318-5.121 13.352c-.157 2.54-2.705 10.71-5.444 10.65-2.4-.07-2.334-8.244-2.16-9.421 4.482-6.234 6.973-14.035 6.757-18.952-.181-1.894.159-3.875-2.802-6.188zm33.882 29.02s-.319 3.4-.81 6.782-1.154 6.754-1.841 6.7c-1.551-.332-1.234-8.606 2.651-13.482zM46.675 54.106c1.509.25.757 7.2.084 10.146-.574 2.513-2.136 9.589-4.273 9.432-1.624-.12-2.043-6.527-.618-10.77 1.69-5.024 3.622-9.004 4.807-8.812zm-15.474-4c.051-.217.375-1.35.548-1.345s.527 1.9.07 4.483c-1.035 5.853-2.68 9.339-3.3 10.322.021-1.271 2.136-11.12 2.682-13.456z" fill="#fff"></path>
          <path d="M10.423 94.125l40.041-13.012.281.755-40.093 13.011-.229-.754z" fill="#fff"></path>
        </g>
      </symbol>

        <symbol xmlns="http://www.w3.org/2000/svg" viewBox="0 0 62.011 62" id="badmintonico">
    <path d="M59.267 50.843a4.339 4.339 0 0 0-3.333-3.316 4.331 4.331 0 0 0-5.581-5.584 4.336 4.336 0 0 0-8.462-.085l-3.845 10.4c-.031.029-.064.056-.095.086a5.366 5.366 0 0 0 7.588 7.588c.03-.03.057-.063.086-.095l10.395-3.848a4.34 4.34 0 0 0 3.247-5.146zm-5.6-6.628a2.519 2.519 0 0 1 .024 3.533l-9.189 7.33-1.7-1.7 7.33-9.189a2.519 2.519 0 0 1 3.53.027zM43.615 42.43a.912.912 0 0 0 .035-.12 2.519 2.519 0 0 1 4.58-.827 2.5 2.5 0 0 1 .375 1.7l-7.115 8.919a2.659 2.659 0 0 0-1.259-.528zm-4.379 16.211a3.556 3.556 0 0 1 0-5.02.885.885 0 0 1 .09-.077.874.874 0 0 1 1.142.081l.474.474 2.842 2.842.465.465a.861.861 0 0 1 .254.614.871.871 0 0 1-.153.5l-.018.025a.879.879 0 0 1-.084.1 3.553 3.553 0 0 1-5.012-.002zm16.331-4.419a.9.9 0 0 0-.122.036l-9.148 3.387a2.652 2.652 0 0 0-.527-1.259l8.918-7.114a2.516 2.516 0 0 1 .88 4.951z" fill="#ff7517"></path>
    <g fill="#6a6a6a">
      <path d="M56.975 5.025a17.27 17.27 0 0 0-24.357 0A.908.908 0 0 0 33.9 6.309a15.408 15.408 0 0 1 21.791 21.788l-3.2 3.2a15.364 15.364 0 0 1-12.511 4.41 18.933 18.933 0 0 1-4.433-1.083c-.456-.156-.887-.3-1.311-.426a11.743 11.743 0 0 1-6.429-6.418c-.123-.428-.273-.865-.431-1.326a18.935 18.935 0 0 1-1.083-4.433A15.365 15.365 0 0 1 30.7 9.511a.908.908 0 0 0-1.285-1.284 17.174 17.174 0 0 0-4.93 13.982 20.744 20.744 0 0 0 1.171 4.833c.115.335.225.657.32.961L22.9 34.565l-4.127 4.127a.908.908 0 0 0 1.284 1.284l3.6-3.6 1.97 1.97-9.4 9.4-1.967-1.967 2.9-2.906a.908.908 0 0 0-1.285-1.284l-3.037 3.04a2.288 2.288 0 0 0-.837-.159 2.256 2.256 0 0 0-1.608.667l-9.04 9.04a4.578 4.578 0 0 0 3.238 7.818 4.543 4.543 0 0 0 3.239-1.34l9.039-9.039a2.258 2.258 0 0 0 .669-1.61 2.287 2.287 0 0 0-.159-.841l10.056-10.061L34 36.023c.3.095.626.205.961.32a20.744 20.744 0 0 0 4.833 1.171 17.62 17.62 0 0 0 1.825.1 17.144 17.144 0 0 0 12.157-5.025l3.2-3.2a17.243 17.243 0 0 0 0-24.357zM6.532 59.377a2.764 2.764 0 0 1-3.907-3.909L5.8 52.295l3.905 3.908zm4.458-4.458L7.082 51.01l1.813-1.813 3.905 3.908zm4.584-4.584l-1.486 1.486-3.909-3.908 1.488-1.488a.456.456 0 0 1 .324-.133.465.465 0 0 1 .33.135l3.251 3.251a.465.465 0 0 1 .135.331.458.458 0 0 1-.135.326zM27.1 37.253L24.747 34.9l2.222-4.731a13.435 13.435 0 0 0 4.9 4.842z"></path>
      <path d="M32.703 29.298a12.593 12.593 0 0 0 17.784 0l3.2-3.2A12.576 12.576 0 0 0 35.902 8.313l-3.2 3.2a12.593 12.593 0 0 0 0 17.784zm-1.561-11.416l1.722 1.722-1.957 1.957a10.857 10.857 0 0 1 .235-3.679zm.211 5.8l2.795-2.795 2.84 2.84-3.614 3.614a10.679 10.679 0 0 1-2.021-3.658zm13.127-4.879l3.641-3.641 2.84 2.84-3.641 3.641zm1.555 4.124l-3.639 3.639-2.84-2.84 3.639-3.639zm-2.84-5.409l-2.84-2.84 3.641-3.641 2.84 2.84zm-1.284 1.284l-3.639 3.639-2.84-2.84 3.639-3.639zm-7.253 9.822l3.614-3.614 2.84 2.84-2.795 2.795a10.7 10.7 0 0 1-3.658-2.019zm6.938 2.531a10.834 10.834 0 0 1-1.157-.065l1.957-1.957 1.723 1.723a10.833 10.833 0 0 1-2.523.299zm7.607-3.145a10.7 10.7 0 0 1-3.17 2.191l-2.352-2.346 3.639-3.639 2.842 2.842zm3.2-3.2l-.959.959-2.842-2.842 3.641-3.641 2.352 2.352a10.7 10.7 0 0 1-2.192 3.172zm2.848-5.086l-1.725-1.721 1.957-1.957a10.833 10.833 0 0 1-.23 3.68zm-.213-5.8l-2.794 2.794-2.84-2.84 3.612-3.612a10.684 10.684 0 0 1 2.024 3.658zm-3.306-4.942l-3.606 3.613-2.84-2.84 2.794-2.794a10.674 10.674 0 0 1 3.658 2.022zm-6.937-2.533a10.845 10.845 0 0 1 1.157.064L43.995 8.47l-1.723-1.723a10.832 10.832 0 0 1 2.525-.298zm-7.608 3.146a10.7 10.7 0 0 1 3.172-2.193l2.352 2.352-3.641 3.641-2.844-2.84zm-3.2 3.2l.959-.959 2.842 2.842-3.639 3.639-2.352-2.352a10.686 10.686 0 0 1 2.19-3.167z"></path>
    </g>
  </symbol>
  <symbol xmlns="http://www.w3.org/2000/svg" viewBox="0 0 54.259 52.487" id="cricico">
    <path d="M51.856 4.092a1.779 1.779 0 0 0-2.518 0l-7.722 7.793-1.37-.685a1.779 1.779 0 0 0-1.993.294V4.448a1.779 1.779 0 0 0-1.778-1.779v-.89A1.779 1.779 0 0 0 34.695 0H18.682a1.779 1.779 0 0 0-1.779 1.779v.89a1.779 1.779 0 0 0-1.779 1.779c.024.131-.027 30.013 0 30.1l-9.252 9.221a1.779 1.779 0 0 0 0 2.491l5.738 5.676a1.779 1.779 0 0 0 2.518 0l1-1a1.779 1.779 0 0 0 1.779 1.548h1.779a1.779 1.779 0 0 0 1.779-1.779v-5.086l3.558-3.558v8.647a1.779 1.779 0 0 0 1.779 1.779h1.779a1.779 1.779 0 0 0 1.779-1.779V36.723l3.558-3.558v17.543a1.779 1.779 0 0 0 1.779 1.779h1.778a1.779 1.779 0 0 0 1.779-1.779V27.827l8.122-8.113a1.779 1.779 0 0 0 .329-2.055l-.685-1.37 7.722-7.722a1.779 1.779 0 0 0 0-2.509zM36.475 50.708h-1.78V31.385l1.779-1.779zM25.799 23.895V4.448h1.779v17.677zm3.559-18.557h3.558V16.8l-3.558 3.558zm7.117-.89v8.8l-1.78 1.778V4.448zm-1.78-1.779a1.779 1.779 0 0 0-1.53.89h-4.056a1.779 1.779 0 0 0-1.53-.89v-.89h7.116zm-16.013-.89h7.117v.89a1.779 1.779 0 0 0-1.53.89h-4.057a1.779 1.779 0 0 0-1.53-.89zm0 2.669v26.546l-1.779 1.779V4.448zm1.779.89h3.558v20.327l-3.558 3.558zm-1.779 45.37h-1.779v-1.53l1.779-1.778zm8.9 0h-1.783V40.282l1.779-1.782zm-14.714 0c-.053-.089.756.747-5.738-5.676C26.902 25.3-22.106 74.185 39.455 12.793l1.779.89 2.936 2.936.89 1.779c-33.4 33.512-32.106 32.311-32.2 32.311zm32.076-35.851l-1.895-1.895 7.544-7.624L52.488 7.3z" fill="#6a6a6a"></path>
    <path d="M14.234 12.01a8.087 8.087 0 0 0-6.228-3.114A8.22 8.22 0 0 0 0 16.903a8.22 8.22 0 0 0 8.007 8.007 8.087 8.087 0 0 0 6.227-3.114 7.932 7.932 0 0 0 0-9.786zM3.069 20.585a6.361 6.361 0 0 1-.729-1.2l8.149-8.149a6.361 6.361 0 0 1 1.2.729zm9.875-7.366a6.592 6.592 0 0 1 .729 1.192l-8.157 8.158a6.592 6.592 0 0 1-1.192-.729zM8.5 10.675l-6.721 6.721A6.334 6.334 0 0 1 8.5 10.675zm-1 12.455l6.734-6.734A6.334 6.334 0 0 1 7.5 23.13z" fill="#ff7517"></path>
  </symbol>
  <symbol xmlns="http://www.w3.org/2000/svg" viewBox="0 0 56.953 56.971" id="price">
    <path d="M26.181 38.641a1.113 1.113 0 1 0-1.574 0 1.114 1.114 0 0 0 1.574 0zm0 0" fill="#ff7517"></path>
    <path d="M20.913 12.236A12.236 12.236 0 1 0 33.15 0a12.251 12.251 0 0 0-12.237 12.236zm22.248 0A10.012 10.012 0 1 1 33.15 2.225a10.023 10.023 0 0 1 10.014 10.011zM12.813 56.642a1.112 1.112 0 0 0 1.57.009l5.393-5.313a3.362 3.362 0 0 0 .792-3.452l1.16-1.119a3.317 3.317 0 0 1 2.316-.936h14.789a9.96 9.96 0 0 0 6.983-2.837c.077-.075-.587.708 10.089-12.052a4.45 4.45 0 0 0-6.771-5.775l-6.564 6.747a4.471 4.471 0 0 0-3.459-1.656h-12.4a14.352 14.352 0 0 0-5.571-1.112 13.762 13.762 0 0 0-12.544 7.113 3.323 3.323 0 0 0-2.975.922L.325 42.488a1.113 1.113 0 0 0 0 1.569zm8.322-25.272a12.143 12.143 0 0 1 4.9 1.019 1.11 1.11 0 0 0 .446.093h12.63a2.225 2.225 0 1 1 0 4.45h-9.076a1.112 1.112 0 1 0 0 2.225h9.076a4.443 4.443 0 0 0 4.41-5.031c6.35-6.527 7.245-7.444 7.283-7.49a2.226 2.226 0 1 1 3.4 2.875l-9.977 11.928a7.746 7.746 0 0 1-5.392 2.168H24.044a5.531 5.531 0 0 0-3.861 1.56l-.945.912-8.715-8.714c2.037-3.822 5.858-5.995 10.612-5.995zM7.191 38.752a1.11 1.11 0 0 1 1.377-.156c.193.117-.36-.386 9.635 9.6a1.115 1.115 0 0 1 .006 1.568l-4.6 4.53L2.681 43.275zm0 0" fill="#6a6a6a"></path><text transform="translate(33.138 19.971)" fill="#ff7517" font-size="17" font-family="RupeeForadian, Rupee Foradian">
      <tspan x="-4.25" y="0">`</tspan>
    </text>
  </symbol>
  <symbol xmlns="http://www.w3.org/2000/svg" viewBox="0 0 55.558 47.814" id="stadium">
    <path d="M52.983 17.137c-4.545-2.224-13.592-3.069-18.654-3.328v-1.418h1.045a1.38 1.38 0 0 0 1.379-1.374v-2a.814.814 0 0 0-1.628 0v1.753H20.433v-7.3h5.437a.814.814 0 0 0 0-1.628h-3.013V.817a.814.814 0 0 0-1.628 0v1.019h-1.045a1.38 1.38 0 0 0-1.379 1.379v7.8a1.38 1.38 0 0 0 1.379 1.379h1.046v1.418C16.505 14.051 0 15.288 0 20.041v17.851c0 1.091.866 2.067 2.575 2.9 4.214 2.063 12.349 2.928 17.006 3.232l-.6 1.1a1.671 1.671 0 0 0 1.363 2.466 120.98 120.98 0 0 0 14.84-.021 1.685 1.685 0 0 0 1.37-2.486l-.577-1.061c4.476-.292 19.581-1.609 19.581-6.136V20.041c0-1.091-.867-2.067-2.575-2.904zm-18.654-1.7c12.879.666 19.6 3.122 19.6 4.6 0 .571-1.515 1.963-7.249 3.15-.758.157-1.48.289-2.241.415a1.849 1.849 0 0 0 .746-1.418c0-2.856-7.927-3.717-10.858-3.974zm-11.472-3.046H32.7v1.346a131.346 131.346 0 0 0-9.844 0zm0 2.975c3.2-.122 6.539-.126 9.844 0v2.725a79.983 79.983 0 0 0-9.844 0zm-.814 5.489a.814.814 0 0 0 .814-.814v-.318a77.673 77.673 0 0 1 9.844 0v.318a.814.814 0 1 0 1.628 0v-.192a46.629 46.629 0 0 1 4.671.638c3.417.667 4.438 1.451 4.55 1.7-.112.25-1.133 1.034-4.55 1.7a68.914 68.914 0 0 1-22.448 0c-3.417-.667-4.439-1.451-4.551-1.7.112-.25 1.133-1.034 4.551-1.7a46.629 46.629 0 0 1 4.675-.638v.192a.814.814 0 0 0 .816.814zM1.628 20.04c0-.571 1.519-1.963 7.249-3.149a84.16 84.16 0 0 1 12.353-1.452v2.778c-2.925.257-10.858 1.117-10.858 3.974a1.85 1.85 0 0 0 .746 1.418 57.059 57.059 0 0 1-2.241-.415c-5.734-1.187-7.249-2.58-7.249-3.15zm0 2.371c8.159 5.345 44.128 5.364 52.3 0v2.249c0 .57-1.515 1.963-7.249 3.15-10.435 2.16-27.374 2.159-37.8 0-5.734-1.187-7.249-2.579-7.249-3.15zM20.095 42.43c-12.643-.779-18.467-3.213-18.467-4.538v-2c3.908 2.551 13.8 3.508 18.467 3.793zm0-4.375c-12.442-.772-18.467-3.163-18.467-4.538v-1.965c3.9 2.547 13.766 3.506 18.467 3.793zm14.986 7.9a119.346 119.346 0 0 1-14.637.021.042.042 0 0 1-.033-.063l.967-1.777c4.192.209 8.622.208 12.8 0l.944 1.736a.056.056 0 0 1-.041.079zm-4.911-7.852h-4.782a1.488 1.488 0 0 0-1.488 1.486V42.6c-.527-.016-1.014-.028-2.18-.082v-7.657a.1.1 0 0 1 .1-.1h11.913a.1.1 0 0 1 .1.1v7.656c-1.134.053-1.555.064-2.18.082v-3.01a1.488 1.488 0 0 0-1.483-1.486zm-.142 1.628v2.907c-1.493.026-2.721.031-4.5 0v-2.907zm5.024-5.991a1.748 1.748 0 0 0-1.319-.609H21.825a1.752 1.752 0 0 0-1.319.609c-12.84-.749-18.878-3.2-18.878-4.561v-2.15c8.158 5.357 44.16 5.347 52.3 0v2.15c0 .483-1.078 1.584-5.118 2.652a73.949 73.949 0 0 1-13.758 1.909zm18.878-2.188v1.965c0 .482-1.075 1.582-5.105 2.649a72.9 72.9 0 0 1-13.362 1.888v-2.708c4.694-.288 14.564-1.246 18.467-3.794zm0 6.34c0 .57-1.515 1.963-7.249 3.15a81.468 81.468 0 0 1-11.218 1.388v-2.745c4.67-.286 14.559-1.242 18.467-3.793z" fill="#6a6a6a"></path>
    <path d="M24.783 7.634h-1.794a.814.814 0 0 0 0 1.628h1.794a.814.814 0 1 0 0-1.628zm7.786 0h-1.794a.814.814 0 1 0 0 1.628h1.794a.814.814 0 0 0 0-1.628zm-4.609 0h-.361a.814.814 0 0 0 0 1.628h.361a.814.814 0 0 0 0-1.628zm3.893-2.672h-.361a.814.814 0 1 0 0 1.628h.361a.814.814 0 0 0 0-1.628zm-7.787 0h-.361a.814.814 0 1 0 0 1.628h.361a.814.814 0 1 0 0-1.628z" fill="#ff7517"></path>
    <path d="M35.374 1.833h-1.045V.818a.814.814 0 1 0-1.628 0v1.019h-3.033a.814.814 0 0 0 0 1.628h5.457v1.753a.814.814 0 0 0 1.628 0v-2a1.38 1.38 0 0 0-1.379-1.385z" fill="#6a6a6a"></path>
  </symbol>
  <symbol xmlns="http://www.w3.org/2000/svg" viewBox="0 0 60.001 59.961" id="ttico">
    <path d="M53.38 5.912a19.935 19.935 0 0 0-7.751-4.719C39.633-.894 32.034-.278 25.18 3.3c-4.251 2.353-10.836 7.344-13.669 14.553a19.527 19.527 0 0 0-1.409 6.006 1.15 1.15 0 0 0-.045.219 18.343 18.343 0 0 0 .109 3.246.071.071 0 0 1 0 .014 18.909 18.909 0 0 0 .339 1.929l.046.2c.147.615.322 1.227.531 1.836.026.077.057.154.084.231.22.618.464 1.233.748 1.844a7.658 7.658 0 0 1 .6 5.024c-.04.162-.1.314-.142.472-.061.207-.115.419-.187.619s-.154.37-.233.554c-.067.158-.125.321-.2.475-.1.209-.222.407-.338.608-.069.119-.128.244-.2.361-.136.216-.293.421-.447.628-.069.093-.129.191-.2.283-.177.223-.376.435-.575.648-.064.069-.119.141-.186.209a11.9 11.9 0 0 1-.686.631c-.066.058-.123.119-.192.176a14.77 14.77 0 0 1-.9.688c-.033.024-.061.049-.1.073q-.528.369-1.118.719a41.147 41.147 0 0 0-4.083 2.7l-1.581 1.225a2.934 2.934 0 0 0-.286 4.4l5.229 5.231a2.931 2.931 0 0 0 2.074.859c.072 0 .144 0 .216-.008a2.933 2.933 0 0 0 2.14-1.176l1.646-2.213c.474-.638.946-1.335 1.424-2.091.327-.518.657-1.058.993-1.643q.338-.586.693-1.111a11.892 11.892 0 0 1 3.094-3.2c.04-.027.077-.061.118-.088.216-.144.442-.268.667-.393.089-.05.174-.109.265-.156.2-.1.408-.187.615-.277.126-.055.246-.119.375-.168.181-.07.372-.123.559-.183.165-.053.325-.115.494-.161a7.3 7.3 0 0 1 4.242.213c.266.09.52.184.745.282l.029.011a23.055 23.055 0 0 0 1.69.638q.627.21 1.258.377c.039.01.078.023.118.033a18.507 18.507 0 0 0 5.648.57 1.107 1.107 0 0 0 .162-.033c5.266-.34 10.481-2.926 15.234-7.678C60.99 31.101 62.269 14.802 53.38 5.912zM8.914 57.583a.934.934 0 0 1-1.41.1L2.28 52.457a.936.936 0 0 1 .091-1.4l1.591-1.224a38.828 38.828 0 0 1 3.884-2.568 17.678 17.678 0 0 0 2.429-1.714q.54-.458 1.016-.947c.028-.029.05-.06.078-.088.286-.3.56-.606.81-.924.04-.05.071-.1.11-.156.23-.3.451-.6.65-.921.048-.077.086-.161.133-.239.177-.3.351-.6.5-.906.046-.094.079-.194.122-.29.138-.3.274-.607.388-.924.037-.1.063-.217.1-.323.1-.31.2-.62.286-.943v-.02a.014.014 0 0 1 0-.006 9.515 9.515 0 0 0-.737-6.328c-.114-.245-.2-.491-.3-.737a17.5 17.5 0 0 1-1.374-5.792l21.205 21.206h-.013a16.715 16.715 0 0 1-1.422-.148c-.035-.005-.07-.008-.1-.014-.45-.068-.9-.16-1.348-.265-.055-.013-.11-.022-.166-.036a18.55 18.55 0 0 1-1.3-.377c-.065-.021-.13-.037-.195-.059a19.6 19.6 0 0 1-1.469-.565 11.059 11.059 0 0 0-2.136-.675c-.093-.019-.186-.045-.278-.061s-.179-.023-.269-.037c-.178-.027-.356-.056-.532-.072-.033 0-.067 0-.1-.005a9.512 9.512 0 0 0-.693-.035h-.021q-.382 0-.76.028c-.072.006-.142.019-.213.027-.186.02-.371.039-.554.071a8.212 8.212 0 0 0-.618.137c-.043.011-.086.017-.129.029h-.012c-.4.108-.778.236-1.151.376l-.087.028c-.371.142-.728.3-1.077.479-.031.016-.065.027-.095.043a11.5 11.5 0 0 0-.961.559c-.045.029-.094.052-.14.081-.323.213-.635.447-.941.694-.03.024-.062.043-.091.068a15.61 15.61 0 0 0-3.539 4.343 35.838 35.838 0 0 1-2.288 3.538zm27.1-10.437c-.009-.009-.013-.021-.022-.03L12.159 23.282l-.011-.008a17.505 17.505 0 0 1 .967-4.083C16.824 8.177 37.533-6.115 51.964 7.322c8.123 8.123 6.846 23.127-2.79 32.763-4.202 4.206-8.65 6.566-13.159 7.061z" fill="#6a6a6a"></path>
    <g transform="translate(-471 -4337.978)">
      <circle cx="9" cy="9" r="9" transform="translate(513 4369)" fill="#fff"></circle>
      <path d="M516.671 4376.855a4 4 0 0 1 4-4 1 1 0 0 0 0-2 6.006 6.006 0 0 0-6 6 1 1 0 1 0 2 0z" fill="#6a6a6a"></path>
      <path d="M521 4387a10.012 10.012 0 0 1-10-10 10.012 10.012 0 0 1 10-10 10.011 10.011 0 0 1 10 10 10.011 10.011 0 0 1-10 10zm0-18a8.009 8.009 0 0 0-8 8 8.009 8.009 0 0 0 8 8 8.009 8.009 0 0 0 8-8 8.009 8.009 0 0 0-8-8z" fill="#ff7517"></path>
    </g>
  </symbol>
</svg>