<svg xmlns="http://www.w3.org/2000/svg" width="46" height="37.978" viewBox="0 0 46 37.978">
  <path id="twitter" d="M17.5,37.977C9.826,37.977,3.758,36.636.855,34.3L.8,34.252.747,34.2a2.361,2.361,0,0,1-.619-2.483l.027-.074a2.4,2.4,0,0,1,2.194-1.509,19.822,19.822,0,0,0,5.241-.723,9.948,9.948,0,0,1-5.243-6.058,2.148,2.148,0,0,1,.749-2.5,2.192,2.192,0,0,1,.654-.334A14.508,14.508,0,0,1,.776,15.185l-.018-.06-.012-.061a2.236,2.236,0,0,1,1.036-2.4,2.227,2.227,0,0,1,1.06-.3A11.217,11.217,0,0,1,1.995,9.78,10.816,10.816,0,0,1,3.146,2.573L3.431,2a1.591,1.591,0,0,1,2.548-.414l.52.52c4.106,4.3,7.784,6.347,14.143,7.745a11.267,11.267,0,0,1,3.042-6.5A10.672,10.672,0,0,1,31.3,0h.019c2.106,0,4.719,1.2,6.3,2.05C38.974,1.608,40.607.921,42.3.195A2.139,2.139,0,0,1,44.7.616a2.1,2.1,0,0,1,.456,2.31q-.185.514-.418,1.009a2.142,2.142,0,0,1,.624.43,2.314,2.314,0,0,1,.576,2.162l-.021.073a8.825,8.825,0,0,1-3.546,4.866C42.09,26.137,31.043,37.977,17.5,37.977ZM3.442,32.8C6.177,34.343,11.391,35.28,17.5,35.28a21.063,21.063,0,0,0,15.615-7.1A25.453,25.453,0,0,0,39.674,10.9v-.073a1.589,1.589,0,0,1,.848-1.406A5.728,5.728,0,0,0,43,6.682a1.591,1.591,0,0,1-1.533-2.505,8.756,8.756,0,0,0,.6-.951c-1.463.615-2.853,1.166-4.059,1.532a1.725,1.725,0,0,1-1.327-.143A13.143,13.143,0,0,0,31.329,2.7a8.388,8.388,0,0,0-8.068,8.5,1.591,1.591,0,0,1-1.9,1.561c-7.332-1.445-11.677-3.611-16.2-8.151a7.964,7.964,0,0,0-.525,4.657A9.843,9.843,0,0,0,6.978,13.8a1.591,1.591,0,0,1-1.605,2.586,7.286,7.286,0,0,1-1.483-.57A13.439,13.439,0,0,0,8.5,21.156a1.591,1.591,0,0,1-1.017,2.9A7.152,7.152,0,0,1,5.368,23.6a7.254,7.254,0,0,0,5.789,4.1,1.591,1.591,0,0,1,.473,2.974A19.115,19.115,0,0,1,3.442,32.8Zm0,0" transform="translate(0 0)" fill="#f7d7c1"/>
</svg>
