<svg id="youtube" xmlns="http://www.w3.org/2000/svg" width="46" height="34.841" viewBox="0 0 46 34.841">
  <path id="Path_60" data-name="Path 60" d="M203.871,112.315l-10.163-5.56a1.867,1.867,0,0,0-2.763,1.638v11.026a1.863,1.863,0,0,0,2.751,1.644l10.163-5.465a1.867,1.867,0,0,0,.012-3.282Zm-10.23,5.716v-8.24l7.6,4.156Zm0,0" transform="translate(-173.79 -96.953)" fill="#f7d7c1"/>
  <path id="Path_61" data-name="Path 61" d="M45.662,8.223l0-.021c-.039-.37-.427-3.664-2.028-5.339A7.485,7.485,0,0,0,38.674.539L38.446.512,38.365.5C32.284.061,23.1,0,23.008,0h-.016C22.9,0,13.716.061,7.58.5L7.5.512,7.283.538a7.3,7.3,0,0,0-4.929,2.4C.83,4.591.389,7.814.344,8.176l-.005.047C.325,8.377,0,12.045,0,15.727v3.442c0,3.682.325,7.35.338,7.5l0,.023c.039.364.426,3.6,2.02,5.273a7.638,7.638,0,0,0,5.124,2.292c.187.021.348.04.458.059l.106.015c3.511.334,14.52.5,14.987.505h.028c.092,0,9.276-.061,15.357-.5l.08-.008c.077-.01.163-.019.258-.029a7.128,7.128,0,0,0,4.886-2.338c1.525-1.658,1.966-4.88,2.011-5.242l.005-.047c.014-.154.339-3.822.339-7.5V15.727C46,12.045,45.675,8.378,45.662,8.223ZM43.3,19.169c0,3.408-.3,6.918-.326,7.24a8.558,8.558,0,0,1-1.322,3.734,4.433,4.433,0,0,1-3.181,1.476c-.1.011-.2.021-.287.032-5.882.425-14.719.491-15.126.493-.457-.007-11.3-.173-14.709-.489-.174-.028-.363-.05-.562-.073a5.04,5.04,0,0,1-3.447-1.44l-.025-.027a7.765,7.765,0,0,1-1.3-3.7C3,26.176,2.7,22.625,2.7,19.169V15.727c0-3.4.3-6.91.326-7.239A8.384,8.384,0,0,1,4.344,4.753,4.651,4.651,0,0,1,7.592,3.215l.22-.026C13.78,2.762,22.681,2.7,23,2.7s9.217.066,15.132.493l.237.028a4.827,4.827,0,0,1,3.3,1.5l.011.012a7.89,7.89,0,0,1,1.3,3.751c.02.23.327,3.789.327,7.252Zm0,0" transform="translate(0)" fill="#f7d7c1"/>
</svg>
